<svg xmlns="http://www.w3.org/2000/svg" viewBox="0 0 347.61 343.79"><defs><style>.cls-1{fill:#ff6584;}.cls-2{fill:none;}.cls-3{fill:#6b63ff;}.cls-4{fill:#02c4cc;}.cls-5{fill:#f7ff63;}</style></defs><g id="Layer_2" data-name="Layer 2"><g id="Layer_1-2" data-name="Layer 1"><path class="cls-1" d="M237.12,57.63c-.2-3.18.58-15.26-4-27.67-.95-2.53-1.83-4.92-2.62-7a1.14,1.14,0,0,1,1.45-1.47,161.46,161.46,0,0,1,34.29,17.27,158.26,158.26,0,0,1,70.66,121.73,1.12,1.12,0,0,0,.92,1l8.89,1.72a1.14,1.14,0,0,1,.59,1.92l-6.71,6.72-35.92,35.9a1.13,1.13,0,0,1-1.52.07l-49.46-40.47a1.15,1.15,0,0,1,.37-2l11.48-3.82a1.12,1.12,0,0,0,.77-1c.65-6.51,2-29.79-14.22-51.13-13.34-17.61-31.26-24.25-42.34-26.78a1.13,1.13,0,0,1-.29-2.09"/><line class="cls-2" x1="188.59" y1="90.94" x2="188.51" y2="91.16"/><path class="cls-3" d="M293,225.74c3.15-.44,15.26-.54,27.3-6.05l6.8-3.12a1.14,1.14,0,0,1,1.58,1.33A161.4,161.4,0,0,1,314,253.37a158.3,158.3,0,0,1-116.2,79.43,1.13,1.13,0,0,0-1,1q-.54,4.5-1.06,9a1.14,1.14,0,0,1-1.87.74l-7.2-6.2-38.44-33.18a1.12,1.12,0,0,1-.18-1.51l36.72-52.3a1.13,1.13,0,0,1,2,.21q2.32,5.58,4.66,11.17a1.16,1.16,0,0,0,1,.71c6.54.17,29.85-.23,49.94-18,16.58-14.61,21.88-33,23.59-44.2a1.13,1.13,0,0,1,2.06-.44"/><path class="cls-4" d="M116.66,289.65c.39,3.16.32,15.27,5.66,27.38l3,6.85a1.14,1.14,0,0,1-1.36,1.56,161.06,161.06,0,0,1-35.25-15.2A158.26,158.26,0,0,1,11,192.93a1.12,1.12,0,0,0-1-1l-9-1.19a1.13,1.13,0,0,1-.71-1.88l6.3-7.11,33.71-38a1.14,1.14,0,0,1,1.52-.16L93.6,181.1a1.15,1.15,0,0,1-.25,2l-11.23,4.5a1.13,1.13,0,0,0-.72,1c-.26,6.53-.2,29.84,17.24,50.19C113,255.56,131.29,261.13,142.5,263a1.13,1.13,0,0,1,.42,2.07"/><path class="cls-5" d="M57.41,116.18c-3.16.38-15.27.25-27.41,5.53l-6.86,3a1.14,1.14,0,0,1-1.55-1.37,158.66,158.66,0,0,1,133-112.41,1.13,1.13,0,0,0,1-1c.41-3,.81-6,1.23-9a1.13,1.13,0,0,1,1.88-.7l7.08,6.33,37.81,33.9a1.12,1.12,0,0,1,.15,1.51l-37.7,51.61a1.14,1.14,0,0,1-2-.26c-1.47-3.75-3-7.49-4.45-11.25a1.13,1.13,0,0,0-1-.73c-6.53-.29-29.85-.34-50.27,17C91.51,112.7,85.86,131,83.94,142.15a1.13,1.13,0,0,1-2.07.4"/></g></g></svg>