<svg width="150" height="149" viewBox="0 0 150 149" fill="none" xmlns="http://www.w3.org/2000/svg">
<g clip-path="url(#clip0)">
<path d="M102.322 24.8684C102.235 23.4962 102.572 18.2835 100.596 12.9283C100.186 11.8366 99.8059 10.8053 99.465 9.9077C99.4325 9.82001 99.4258 9.72488 99.4454 9.63347C99.4651 9.54206 99.5105 9.45816 99.5761 9.39159C99.6418 9.32502 99.7251 9.27855 99.8162 9.25761C99.9073 9.23667 100.003 9.24214 100.091 9.27337C105.302 11.1601 110.269 13.6619 114.887 16.7257C123.678 22.5357 131.004 30.3009 136.294 39.4138C141.584 48.5266 144.693 58.7399 145.378 69.2544C145.388 69.3599 145.432 69.4593 145.504 69.5372C145.576 69.6152 145.671 69.6674 145.775 69.6859L149.612 70.4281C149.699 70.4453 149.78 70.4859 149.846 70.5454C149.912 70.6049 149.961 70.6813 149.987 70.7663C150.013 70.8512 150.015 70.9417 149.994 71.0281C149.973 71.1144 149.929 71.1934 149.866 71.2566L146.971 74.1564L131.471 89.6479C131.385 89.7337 131.27 89.7844 131.149 89.79C131.027 89.7956 130.908 89.7557 130.815 89.6781L109.472 72.2146C109.401 72.1586 109.347 72.0844 109.315 71.9999C109.283 71.9153 109.275 71.8237 109.292 71.735C109.308 71.6462 109.348 71.5635 109.408 71.496C109.468 71.4284 109.545 71.3785 109.632 71.3516L114.585 69.7032C114.678 69.673 114.759 69.6156 114.818 69.5387C114.877 69.4617 114.912 69.3686 114.918 69.2717C115.198 66.4625 115.781 56.4167 108.781 47.2081C103.025 39.6091 95.2922 36.7438 90.511 35.6521C90.4149 35.6297 90.3279 35.5788 90.2613 35.506C90.1948 35.4331 90.152 35.3418 90.1384 35.2442C90.1249 35.1465 90.1412 35.0469 90.1854 34.9588C90.2296 34.8706 90.2995 34.7979 90.3858 34.7502" fill="#FF6584"/>
<path d="M90.1874 17.6924C90.1572 17.7312 90.127 17.7657 90.1055 17.8003L90.1874 17.6924Z" fill="#E05B00"/>
<path d="M90.1874 17.6924C90.1572 17.7312 90.127 17.7657 90.1055 17.8003L90.1874 17.6924Z" fill="#882BFF"/>
<path d="M126.435 97.4111C127.794 97.2212 133.02 97.178 138.216 94.8004L141.15 93.454C141.235 93.4147 141.329 93.4005 141.422 93.4129C141.514 93.4253 141.602 93.4639 141.673 93.5241C141.745 93.5843 141.798 93.6637 141.826 93.753C141.854 93.8422 141.856 93.9376 141.832 94.028C140.336 99.3638 138.21 104.502 135.497 109.334C130.349 118.527 123.143 126.405 114.445 132.351C105.746 138.297 95.7898 142.15 85.3546 143.609C85.2443 143.622 85.1414 143.671 85.0629 143.749C84.9845 143.828 84.9351 143.931 84.923 144.041C84.7677 145.335 84.6152 146.63 84.4656 147.925C84.4555 148.013 84.4215 148.097 84.3673 148.168C84.3131 148.239 84.2407 148.293 84.1579 148.326C84.075 148.359 83.9848 148.369 83.8969 148.354C83.809 148.34 83.7266 148.302 83.6587 148.244L80.5518 145.568L63.9642 131.251C63.8716 131.172 63.8122 131.061 63.7978 130.94C63.7834 130.819 63.8151 130.698 63.8865 130.599L79.7319 108.031C79.7809 107.956 79.8497 107.895 79.9308 107.857C80.0118 107.818 80.1019 107.803 80.1911 107.812C80.2803 107.822 80.3652 107.856 80.4365 107.91C80.5077 107.965 80.5625 108.038 80.5949 108.121C81.2623 109.727 81.9326 111.333 82.6058 112.941C82.6419 113.028 82.7015 113.102 82.7777 113.156C82.854 113.21 82.9439 113.242 83.0373 113.248C85.8594 113.321 95.9181 113.149 104.587 105.48C111.742 99.176 114.029 91.2404 114.767 86.4073C114.783 86.3103 114.827 86.2203 114.895 86.1491C114.963 86.0779 115.05 86.0288 115.146 86.0083C115.242 85.9878 115.342 85.9968 115.433 86.0341C115.524 86.0714 115.602 86.1353 115.656 86.2175" fill="#6B63FF"/>
<path d="M50.341 124.989C50.5093 126.353 50.4791 131.578 52.7834 136.804L54.0779 139.76C54.1163 139.846 54.1293 139.941 54.1155 140.034C54.1016 140.126 54.0615 140.213 53.9997 140.284C53.938 140.355 53.8573 140.407 53.7672 140.433C53.677 140.459 53.5812 140.459 53.4911 140.433C48.1774 138.861 43.0708 136.659 38.2801 133.874C29.1652 128.594 21.3952 121.277 15.5779 112.495C9.76056 103.714 6.05357 93.7051 4.7468 83.2527C4.73546 83.1421 4.68636 83.0388 4.60776 82.9602C4.52916 82.8816 4.42586 82.8325 4.31528 82.8212L0.431615 82.3077C0.342597 82.2975 0.258112 82.2629 0.187433 82.2079C0.116754 82.1528 0.0626147 82.0793 0.0309588 81.9955C-0.000697083 81.9117 -0.00864568 81.8207 0.00798569 81.7327C0.0246171 81.6447 0.0651853 81.5629 0.125237 81.4964L2.8438 78.4283L17.3903 62.0306C17.4716 61.9399 17.5838 61.8826 17.7049 61.8699C17.8261 61.8571 17.9477 61.8898 18.0462 61.9616L40.3902 78.1478C40.4622 78.2 40.5188 78.2705 40.5542 78.352C40.5896 78.4335 40.6025 78.523 40.5915 78.6112C40.5804 78.6994 40.5459 78.783 40.4916 78.8533C40.4372 78.9236 40.3649 78.978 40.2823 79.0109L35.4364 80.9527C35.3484 80.9868 35.2722 81.0458 35.217 81.1224C35.1619 81.199 35.1301 81.2899 35.1257 81.3842C35.0135 84.202 35.0394 94.2607 42.565 103.042C48.7616 110.279 56.6541 112.682 61.4914 113.489C61.589 113.505 61.6793 113.551 61.7505 113.619C61.8216 113.688 61.8703 113.776 61.8899 113.873C61.9096 113.97 61.8993 114.071 61.8605 114.162C61.8217 114.253 61.7562 114.33 61.6727 114.382" fill="#02C4CC"/>
<path d="M24.7734 50.1338C23.4098 50.2978 18.1841 50.2417 12.9455 52.5201L9.98528 53.8147C9.89933 53.8523 9.8044 53.8646 9.71169 53.8501C9.61898 53.8356 9.53236 53.7948 9.46204 53.7327C9.39173 53.6705 9.34066 53.5896 9.31486 53.4993C9.28906 53.4091 9.2896 53.3134 9.31642 53.2235C13.1111 40.4228 20.5657 29.0109 30.7628 20.3925C40.9598 11.7741 53.4543 6.32522 66.7083 4.71653C66.8186 4.70443 66.9215 4.65508 66.9999 4.57662C67.0784 4.49817 67.1277 4.3953 67.1398 4.28501C67.3168 2.99046 67.4894 1.6959 67.6706 0.40135C67.6815 0.312696 67.7165 0.228734 67.7719 0.158627C67.8272 0.0885196 67.9007 0.0349601 67.9845 0.00379321C68.0682 -0.0273737 68.1588 -0.0349505 68.2465 -0.0181105C68.3343 -0.00127046 68.4157 0.0393394 68.4819 0.0992876L71.537 2.8308L87.8527 17.4593C87.9433 17.5399 88.0003 17.6517 88.0122 17.7724C88.0242 17.8931 87.9904 18.0139 87.9174 18.1109L71.6492 40.3815C71.5976 40.4547 71.527 40.5124 71.4449 40.5483C71.3629 40.5843 71.2727 40.5973 71.1839 40.5857C71.095 40.5742 71.0111 40.5386 70.941 40.4828C70.8709 40.4271 70.8174 40.3532 70.7862 40.2693C70.1518 38.6511 69.4916 37.0372 68.8659 35.4147C68.8325 35.3259 68.7738 35.2488 68.6971 35.1929C68.6205 35.1369 68.5292 35.1045 68.4344 35.0997C65.6166 34.9746 55.5536 34.953 46.742 42.4355C39.4882 48.6321 37.0501 56.5289 36.2216 61.3403C36.2042 61.4372 36.1579 61.5266 36.0887 61.5967C36.0196 61.6668 35.9308 61.7143 35.8341 61.7329C35.7375 61.7516 35.6374 61.7406 35.5471 61.7013C35.4569 61.6621 35.3806 61.5964 35.3283 61.5129" fill="#585A88"/>
</g>
<defs>
<clipPath id="clip0">
<rect width="150" height="148.352" fill="white"/>
</clipPath>
</defs>
</svg>
