<svg width="348" height="344" viewBox="0 0 348 344" fill="none" xmlns="http://www.w3.org/2000/svg">
<g clip-path="url(#clip0)">
<path d="M237.12 57.6298C236.92 54.4498 237.7 42.3698 233.12 29.9598C232.17 27.4298 231.29 25.0398 230.5 22.9598C230.425 22.7566 230.409 22.5361 230.455 22.3243C230.5 22.1125 230.605 21.918 230.758 21.7638C230.91 21.6095 231.103 21.5018 231.314 21.4533C231.525 21.4047 231.746 21.4174 231.95 21.4898C244.026 25.8622 255.538 31.6598 266.24 38.7598C286.611 52.2239 303.589 70.2191 315.848 91.3372C328.106 112.455 335.311 136.124 336.9 160.49C336.923 160.734 337.025 160.965 337.191 161.145C337.357 161.326 337.578 161.447 337.82 161.49L346.71 163.21C346.912 163.25 347.1 163.344 347.253 163.482C347.406 163.62 347.519 163.796 347.579 163.993C347.64 164.19 347.646 164.4 347.596 164.6C347.547 164.8 347.445 164.983 347.3 165.13L340.59 171.85L304.67 207.75C304.471 207.949 304.205 208.066 303.924 208.079C303.642 208.092 303.367 208 303.15 207.82L253.69 167.35C253.526 167.22 253.4 167.048 253.327 166.852C253.253 166.656 253.234 166.444 253.272 166.238C253.31 166.033 253.404 165.841 253.543 165.684C253.681 165.528 253.86 165.412 254.06 165.35L265.54 161.53C265.754 161.46 265.942 161.327 266.079 161.149C266.217 160.97 266.297 160.755 266.31 160.53C266.96 154.02 268.31 130.74 252.09 109.4C238.75 91.7898 220.83 85.1498 209.75 82.6198C209.527 82.568 209.326 82.45 209.172 82.2812C209.017 82.1124 208.918 81.9009 208.887 81.6745C208.855 81.4481 208.893 81.2175 208.996 81.0131C209.098 80.8087 209.26 80.6402 209.46 80.5298" fill="#FF6584"/>
<path d="M293 225.74C296.15 225.3 308.26 225.2 320.3 219.69L327.1 216.57C327.297 216.479 327.515 216.445 327.73 216.474C327.945 216.503 328.147 216.592 328.313 216.732C328.479 216.872 328.601 217.056 328.666 217.262C328.731 217.469 328.736 217.69 328.68 217.9C325.215 230.265 320.287 242.172 314 253.37C302.069 274.674 285.372 292.93 265.214 306.71C245.055 320.489 221.983 329.419 197.8 332.8C197.544 332.828 197.306 332.942 197.124 333.124C196.942 333.306 196.828 333.544 196.8 333.8C196.44 336.8 196.087 339.8 195.74 342.8C195.716 343.005 195.638 343.2 195.512 343.364C195.386 343.528 195.219 343.654 195.027 343.73C194.835 343.806 194.626 343.829 194.422 343.795C194.218 343.762 194.027 343.673 193.87 343.54L186.67 337.34L148.23 304.16C148.015 303.977 147.878 303.72 147.844 303.44C147.811 303.16 147.884 302.878 148.05 302.65L184.77 250.35C184.884 250.176 185.043 250.036 185.231 249.947C185.418 249.858 185.627 249.822 185.834 249.844C186.041 249.865 186.238 249.944 186.403 250.07C186.568 250.196 186.695 250.366 186.77 250.56C188.317 254.28 189.87 258.003 191.43 261.73C191.514 261.93 191.652 262.102 191.828 262.228C192.005 262.353 192.213 262.427 192.43 262.44C198.97 262.61 222.28 262.21 242.37 244.44C258.95 229.83 264.25 211.44 265.96 200.24C265.996 200.015 266.1 199.806 266.257 199.641C266.413 199.476 266.617 199.363 266.839 199.315C267.062 199.267 267.294 199.288 267.505 199.375C267.715 199.461 267.895 199.609 268.02 199.8" fill="#6B63FF"/>
<path d="M116.66 289.65C117.05 292.81 116.98 304.92 122.32 317.03L125.32 323.88C125.409 324.078 125.439 324.298 125.407 324.514C125.375 324.729 125.282 324.931 125.139 325.095C124.996 325.259 124.809 325.378 124.6 325.44C124.391 325.501 124.169 325.501 123.96 325.44C111.646 321.797 99.8119 316.694 88.7099 310.24C67.587 298.004 49.5809 281.047 36.0999 260.697C22.6188 240.346 14.0282 217.152 10.9999 192.93C10.9736 192.674 10.8598 192.434 10.6777 192.252C10.4955 192.07 10.2562 191.956 9.99989 191.93L0.99989 190.74C0.793602 190.716 0.597815 190.636 0.434024 190.509C0.270232 190.381 0.14477 190.211 0.0714107 190.016C-0.00194872 189.822 -0.0203688 189.611 0.0181727 189.407C0.0567143 189.203 0.150727 189.014 0.28989 188.86L6.58989 181.75L40.2999 143.75C40.4884 143.54 40.7483 143.407 41.0291 143.377C41.3099 143.348 41.5917 143.424 41.8199 143.59L93.5999 181.1C93.7667 181.221 93.898 181.384 93.98 181.573C94.0621 181.762 94.0919 181.969 94.0663 182.174C94.0408 182.378 93.9608 182.572 93.8348 182.735C93.7088 182.898 93.5413 183.024 93.3499 183.1L82.1199 187.6C81.916 187.679 81.7394 187.816 81.6116 187.993C81.4838 188.171 81.4102 188.381 81.3999 188.6C81.1399 195.13 81.1999 218.44 98.6399 238.79C113 255.56 131.29 261.13 142.5 263C142.726 263.037 142.935 263.142 143.1 263.301C143.265 263.46 143.378 263.666 143.423 263.89C143.469 264.115 143.445 264.348 143.355 264.558C143.265 264.769 143.114 264.947 142.92 265.07" fill="#02C4CC"/>
<path d="M57.41 116.18C54.25 116.56 42.14 116.43 30 121.71L23.14 124.71C22.9409 124.797 22.7209 124.826 22.506 124.792C22.2912 124.758 22.0904 124.664 21.9275 124.52C21.7646 124.376 21.6462 124.188 21.5864 123.979C21.5266 123.77 21.5279 123.548 21.59 123.34C30.3838 93.6755 47.6592 67.2297 71.2899 47.2574C94.9205 27.285 123.875 14.6578 154.59 10.9298C154.846 10.9018 155.084 10.7874 155.266 10.6056C155.448 10.4238 155.562 10.1854 155.59 9.92982C156 6.92982 156.4 3.92982 156.82 0.929824C156.845 0.724377 156.926 0.529804 157.055 0.367337C157.183 0.20487 157.353 0.0807514 157.547 0.00852524C157.741 -0.0637009 157.951 -0.0812594 158.155 -0.0422344C158.358 -0.0032093 158.547 0.0909 158.7 0.229824L165.78 6.55982L203.59 40.4598C203.8 40.6468 203.932 40.9058 203.96 41.1856C203.988 41.4653 203.909 41.7452 203.74 41.9698L166.04 93.5798C165.92 93.7494 165.757 93.8831 165.567 93.9665C165.377 94.0499 165.167 94.0798 164.962 94.0531C164.756 94.0263 164.561 93.9439 164.399 93.8147C164.236 93.6854 164.112 93.5144 164.04 93.3198C162.57 89.5698 161.04 85.8298 159.59 82.0698C159.512 81.864 159.377 81.6853 159.199 81.5557C159.021 81.426 158.81 81.351 158.59 81.3398C152.06 81.0498 128.74 80.9998 108.32 98.3398C91.51 112.7 85.86 131 83.94 142.15C83.8997 142.374 83.7924 142.581 83.6321 142.744C83.4719 142.906 83.2662 143.016 83.0422 143.06C82.8182 143.103 82.5863 143.077 82.3771 142.986C82.1679 142.895 81.9911 142.743 81.87 142.55" fill="#FFC500"/>
</g>
<defs>
<clipPath id="clip0">
<rect width="347.61" height="343.79" fill="white"/>
</clipPath>
</defs>
</svg>
